<svg height="512" viewBox="0 0 64 64" width="512" xmlns="http://www.w3.org/2000/svg"><path d="m10.03 43a22.014 22.014 0 0 1 21.97-21v2a20.013 20.013 0 0 0 -19.95 19h43.92a23.99 23.99 0 0 0 -47.94 0z"/><path d="m32 18c.34 0 .67.01 1 .03v-4.03h-2v4.03c.33-.02.66-.03 1-.03z"/><path d="m37.5 9h-11a1.5 1.5 0 0 0 0 3h11a1.5 1.5 0 0 0 0-3z"/><path d="m4 51h56v4h-56z"/><path d="m6.39 49h51.22l-1.33-4h-48.56z"/><path d="m5 25h4v2h-4z"/><path d="m11 19h2v4h-2z"/><path d="m7.465 20.464h2v4h-2z" transform="matrix(.707 -.707 .707 .707 -13.406 12.565)"/><path d="m55 25h4v2h-4z"/><path d="m51 19h2v4h-2z"/><path d="m53.535 21.465h4v2h-4z" transform="matrix(.707 -.707 .707 .707 .381 45.849)"/></svg>